Input #0, mov,mp4,m4a,3gp,3g2,mj2, from 'evidence/participant.mp4':
  Metadata:
    major_brand     : isom
    minor_version   : 512
    compatible_brands: isomiso2avc1mp41
    encoder         : Lavf60.16.100
  Duration: 00:02:25.26, start: 0.000000, bitrate: 237 kb/s
  Stream #0:0[0x1](und): Video: h264 (Constrained Baseline) (avc1 / 0x31637661), yuv420p(progressive), 1280x720, 184 kb/s, 30 fps, 30 tbr, 15360 tbn (default)
    Metadata:
      handler_name    : VideoHandler
      vendor_id       : [0][0][0][0]
      encoder         : Lavc60.31.102 libx264
  Stream #0:1[0x2](und): Audio: aac (LC) (mp4a / 0x6134706D), 48000 Hz, stereo, fltp, 45 kb/s (default)
    Metadata:
      handler_name    : SoundHandler
      vendor_id       : [0][0][0][0]
[Parsed_volumedetect_0 @ 0x55c049a03cc0] n_samples: 0
Stream mapping:
  Stream #0:1 -> #0:0 (aac (native) -> pcm_s16le (native))
Press [q] to stop, [?] for help
Output #0, null, to '/tmp/volumedetect-null':
  Metadata:
    major_brand     : isom
    minor_version   : 512
    compatible_brands: isomiso2avc1mp41
    encoder         : Lavf60.16.100
  Stream #0:0(und): Audio: pcm_s16le, 48000 Hz, stereo, s16, 1536 kb/s (default)
    Metadata:
      handler_name    : SoundHandler
      vendor_id       : [0][0][0][0]
      encoder         : Lavc60.31.102 pcm_s16le
size=       0kB time=00:00:01.29 bitrate=   0.0kbits/s speed=N/A    [out#0/null @ 0x55c04986e1c0] video:0kB audio:26860kB subtitle:0kB other streams:0kB global headers:0kB muxing overhead: unknown
size=N/A time=00:02:25.23 bitrate=N/A speed= 645x    
[Parsed_volumedetect_0 @ 0x55c04995a6c0] n_samples: 13752320
[Parsed_volumedetect_0 @ 0x55c04995a6c0] mean_volume: -14.4 dB
[Parsed_volumedetect_0 @ 0x55c04995a6c0] max_volume: 0.0 dB
[Parsed_volumedetect_0 @ 0x55c04995a6c0] histogram_0db: 49134
